<svg width="18" height="18" viewBox="0 0 18 18" fill="none" xmlns="http://www.w3.org/2000/svg">
    <path d="M11.3453 15.8248L5.02657 9.5248C4.95157 9.4498 4.89832 9.36856 4.86682 9.28105C4.83532 9.19355 4.81982 9.0998 4.82032 8.9998C4.82032 8.89981 4.83582 8.80606 4.86682 8.71855C4.89782 8.63105 4.95107 8.5498 5.02657 8.4748L11.3453 2.15605C11.5203 1.98105 11.7391 1.89355 12.0016 1.89355C12.2641 1.89355 12.4891 1.9873 12.6766 2.1748C12.8641 2.3623 12.9578 2.58105 12.9578 2.83105C12.9578 3.08105 12.8641 3.2998 12.6766 3.4873L7.16407 8.9998L12.6766 14.5123C12.8516 14.6873 12.9391 14.9031 12.9391 15.1596C12.9391 15.4161 12.8453 15.6378 12.6578 15.8248C12.4703 16.0123 12.2516 16.1061 12.0016 16.1061C11.7516 16.1061 11.5328 16.0123 11.3453 15.8248Z" fill="#191B08"/>
</svg>
