<svg width="24" height="24" viewBox="0 0 24 24" fill="none" xmlns="http://www.w3.org/2000/svg">
    <path fill-rule="evenodd" clip-rule="evenodd" d="M3.00156 14.1001C3.49862 14.1001 3.90156 14.503 3.90156 15.0001V19.0001C3.90156 19.2918 4.01745 19.5716 4.22374 19.7779C4.43004 19.9842 4.70982 20.1001 5.00156 20.1001H19.0016C19.2933 20.1001 19.5731 19.9842 19.7794 19.7779C19.9857 19.5716 20.1016 19.2918 20.1016 19.0001V15.0001C20.1016 14.503 20.5045 14.1001 21.0016 14.1001C21.4986 14.1001 21.9016 14.503 21.9016 15.0001V19.0001C21.9016 19.7692 21.596 20.5069 21.0522 21.0507C20.5083 21.5946 19.7707 21.9001 19.0016 21.9001H5.00156C4.23243 21.9001 3.49481 21.5946 2.95095 21.0507C2.4071 20.5069 2.10156 19.7692 2.10156 19.0001V15.0001C2.10156 14.503 2.50451 14.1001 3.00156 14.1001Z" fill="black"/>
    <path fill-rule="evenodd" clip-rule="evenodd" d="M12.9017 3.0001C12.9017 2.50304 12.4987 2.1001 12.0017 2.1001C11.5046 2.1001 11.1017 2.50304 11.1017 3.0001V12.8273L7.63796 9.3636C7.28649 9.01213 6.71664 9.01213 6.36517 9.3636C6.01369 9.71508 6.01369 10.2849 6.36517 10.6364L11.3652 15.6364C11.4371 15.7083 11.5182 15.7655 11.6046 15.808C11.7244 15.867 11.8592 15.9001 12.0017 15.9001C12.2559 15.9001 12.4854 15.7947 12.6491 15.6253L17.638 10.6364C17.9894 10.2849 17.9894 9.71508 17.638 9.3636C17.2865 9.01213 16.7166 9.01213 16.3652 9.3636L12.9017 12.8271V3.0001Z" fill="black"/>
</svg>
