<svg width="75" height="20" viewBox="0 0 75 20" fill="none" xmlns="http://www.w3.org/2000/svg">
<path d="M0 15.7761V5.03791H3.88119V14.0648L2.70737 12.9176H9.14446L8.10317 14.0648V5.03791H11.9844V14.0648L10.8673 12.9176H17.3802L16.2063 14.0648V5.03791H20.0875V15.7761H0Z" fill="#191B08"/>
<path d="M48.4456 5.03791V15.7761H44.5645V6.14746L46.3441 7.89642H37.7866L39.5662 6.14746V15.7761H35.6851V5.03791H48.4456Z" fill="#191B08"/>
<path d="M56.2484 16.077C54.86 16.077 53.6483 15.8451 52.6133 15.3812C51.5784 14.9048 50.7706 14.2403 50.19 13.3878C49.6094 12.5227 49.3191 11.5322 49.3191 10.4164C49.3191 9.27552 49.6094 8.2788 50.19 7.42627C50.7706 6.57373 51.5784 5.90925 52.6133 5.43283C53.6483 4.95642 54.86 4.71821 56.2484 4.71821C57.6242 4.71821 58.8296 4.95642 59.8645 5.43283C60.9121 5.90925 61.7262 6.57373 62.3069 7.42627C62.8875 8.2788 63.1777 9.27552 63.1777 10.4164C63.1777 11.5322 62.8875 12.5227 62.3069 13.3878C61.7262 14.2403 60.9121 14.9048 59.8645 15.3812C58.8296 15.8451 57.6242 16.077 56.2484 16.077ZM56.2484 13.2373C56.8795 13.2373 57.4159 13.1245 57.8577 12.8988C58.3121 12.6731 58.6592 12.3472 58.899 11.9209C59.1388 11.4946 59.2587 10.9931 59.2587 10.4164C59.2587 9.81462 59.1388 9.30686 58.899 8.89313C58.6592 8.46686 58.3121 8.14089 57.8577 7.91522C57.4159 7.68955 56.8795 7.57671 56.2484 7.57671C55.6173 7.57671 55.0746 7.68955 54.6202 7.91522C54.1658 8.14089 53.8187 8.46686 53.5789 8.89313C53.3391 9.30686 53.2192 9.80836 53.2192 10.3976C53.2192 10.9869 53.3391 11.4946 53.5789 11.9209C53.8187 12.3472 54.1658 12.6731 54.6202 12.8988C55.0746 13.1245 55.6173 13.2373 56.2484 13.2373Z" fill="#191B08"/>
<path d="M67.0104 6.35432H70.8916V15.7761H67.0104V6.35432ZM62.902 5.03791H75V7.93403H62.902V5.03791Z" fill="#191B08"/>
<path d="M27.8807 15.7952C26.4793 15.7952 25.2562 15.5607 24.2115 15.0919C23.1667 14.6104 22.3513 13.9388 21.7653 13.0771C21.1792 12.2028 20.8862 11.2017 20.8862 10.0739C20.8862 8.92082 21.1792 7.91342 21.7653 7.05175C22.3513 6.19008 23.1667 5.51849 24.2115 5.03697C25.2562 4.55544 26.4793 4.31468 27.8807 4.31468C29.2695 4.31468 30.4862 4.55544 31.5309 5.03697C32.5884 5.51849 33.4101 6.19008 33.9962 7.05175C34.5823 7.91342 34.8753 8.92082 34.8753 10.0739C34.8753 11.2017 34.5823 12.2028 33.9962 13.0771C33.4101 13.9388 32.5884 14.6104 31.5309 15.0919C30.4862 15.5607 29.2695 15.7952 27.8807 15.7952ZM27.8807 12.925C28.5178 12.925 29.0592 12.811 29.5052 12.5829C29.9638 12.3548 30.3142 12.0254 30.5562 11.5945C30.7983 11.1637 30.9194 10.6568 30.9194 10.0739C30.9194 9.46569 30.7983 8.95249 30.5562 8.53433C30.3142 8.1035 29.9638 7.77403 29.5052 7.54594C29.0592 7.31786 28.5178 7.20381 27.8807 7.20381C27.2437 7.20381 26.6959 7.31786 26.2372 7.54594C25.7785 7.77403 25.4282 8.1035 25.1861 8.53433C24.944 8.95249 24.823 9.45936 24.823 10.0549C24.823 10.6505 24.944 11.1637 25.1861 11.5945C25.4282 12.0254 25.7785 12.3548 26.2372 12.5829C26.6959 12.811 27.2437 12.925 27.8807 12.925ZM24.9568 3.57339C24.3198 3.57339 23.8038 3.415 23.4088 3.09821C23.0266 2.78142 22.8355 2.33791 22.8355 1.76769C22.8355 1.22281 23.0266 0.791976 23.4088 0.475186C23.8038 0.158395 24.3198 0 24.9568 0C25.6065 0 26.1225 0.158395 26.5048 0.475186C26.887 0.791976 27.0781 1.22281 27.0781 1.76769C27.0781 2.33791 26.887 2.78142 26.5048 3.09821C26.1225 3.415 25.6065 3.57339 24.9568 3.57339ZM30.8047 3.57339C30.1549 3.57339 29.6389 3.415 29.2567 3.09821C28.8745 2.78142 28.6834 2.33791 28.6834 1.76769C28.6834 1.22281 28.8745 0.791976 29.2567 0.475186C29.6389 0.158395 30.1549 0 30.8047 0C31.4417 0 31.9513 0.158395 32.3336 0.475186C32.7158 0.791976 32.9069 1.22281 32.9069 1.76769C32.9069 2.33791 32.7158 2.78142 32.3336 3.09821C31.9513 3.415 31.4417 3.57339 30.8047 3.57339Z" fill="#191B08"/>
<path d="M23.7893 12.4037L26.6256 12.8592L26.6261 17.985L23.7819 17.9813L23.7893 12.4037Z" fill="#191B08"/>
<path d="M27.9016 17.1705L27.8979 19.9997L23.7793 19.9943L23.7831 17.165L27.9016 17.1705Z" fill="#191B08"/>
<path d="M33.3791 15.932L34.3763 18.5817L30.6541 19.9679L29.6569 17.3182L33.3791 15.932Z" fill="#191B08"/>
<path d="M27.9016 13.1273H29.9442L30.6425 11.8672L32.6084 17.0907L29.9447 18.0827L27.9016 13.1273Z" fill="#191B08"/>
</svg>
