<svg width="17" height="17" viewBox="0 0 17 17" fill="none" xmlns="http://www.w3.org/2000/svg">
    <rect width="16" height="16" transform="translate(0.5 0.5)" fill="none"/>
    <path d="M8.5013 3.1665C9.20855 3.1665 9.88682 3.44746 10.3869 3.94755C10.887 4.44765 11.168 5.12593 11.168 5.83317C11.168 6.54041 10.887 7.21869 10.3869 7.71879C9.88682 8.21889 9.20855 8.49984 8.5013 8.49984C7.79406 8.49984 7.11578 8.21889 6.61568 7.71879C6.11559 7.21869 5.83464 6.54041 5.83464 5.83317C5.83464 5.12593 6.11559 4.44765 6.61568 3.94755C7.11578 3.44746 7.79406 3.1665 8.5013 3.1665ZM8.5013 9.83317C11.448 9.83317 13.8346 11.0265 13.8346 12.4998V13.8332H3.16797V12.4998C3.16797 11.0265 5.55464 9.83317 8.5013 9.83317Z" fill="#191B08"/>
</svg>
