<svg width="37" height="14" viewBox="0 0 37 14" fill="none" xmlns="http://www.w3.org/2000/svg">
    <path d="M0 7C0 3.84222 1.19939 1.35333 2.14956 0H3.31779C2.27417 1.66444 1.46419 4.06 1.46419 7C1.46419 9.94 2.27417 12.32 3.31779 14H2.14956C1.19939 12.6311 0 10.1578 0 7Z" fill="#191B08"/>
    <path d="M10.2044 6.82889C10.7652 6.82889 11.2169 6.44 11.2792 5.75556H12.6032C12.4942 7.12444 11.6219 8.05778 10.2044 8.05778C8.92715 8.05778 7.72776 7 6.68414 7C6.10781 7 5.65609 7.37333 5.60936 8.05778H4.28536C4.36324 6.68889 5.2511 5.75556 6.68414 5.75556C8.16391 5.75556 9.25426 6.82889 10.2044 6.82889Z" fill="#191B08"/>
    <path d="M22.5213 7.09333C22.5213 7.7363 22.433 8.32222 22.2565 8.85111C22.0903 9.38 21.8359 9.8363 21.4932 10.22C21.1506 10.5933 20.73 10.8837 20.2315 11.0911C19.7331 11.2881 19.1568 11.3867 18.5026 11.3867C17.8276 11.3867 17.2357 11.283 16.7268 11.0756C16.2284 10.8681 15.813 10.5778 15.4807 10.2044C15.1484 9.82074 14.8992 9.36963 14.733 8.85111C14.5669 8.32222 14.4838 7.7363 14.4838 7.09333H15.9324C15.9324 7.74667 16.0207 8.31185 16.1972 8.78889C16.3842 9.26593 16.6697 9.63407 17.0539 9.89333C17.4382 10.1526 17.921 10.2822 18.5026 10.2822C19.0945 10.2822 19.5773 10.1526 19.9512 9.89333C20.3354 9.63407 20.6158 9.26593 20.7923 8.78889C20.9792 8.31185 21.0727 7.74667 21.0727 7.09333H22.5213Z" fill="#191B08"/>
    <path d="M30.3218 6.82889C30.8826 6.82889 31.3343 6.44 31.3966 5.75556H32.7206C32.6116 7.12444 31.7393 8.05778 30.3218 8.05778C29.0446 8.05778 27.8452 7 26.8015 7C26.2252 7 25.7735 7.37333 25.7268 8.05778H24.4028C24.4806 6.68889 25.3685 5.75556 26.8015 5.75556C28.2813 5.75556 29.3717 6.82889 30.3218 6.82889Z" fill="#191B08"/>
    <path d="M37 7C37 10.1578 35.8006 12.6311 34.8504 14H33.6822C34.7258 12.32 35.5358 9.94 35.5358 7C35.5358 4.07556 34.7103 1.64889 33.6822 0H34.8504C35.8006 1.35333 37 3.84222 37 7Z" fill="#191B08"/>
</svg>
